<svg width="98" height="112" viewBox="0 0 98 112" fill="none" xmlns="http://www.w3.org/2000/svg">
<path d="M64.616 68.728C65.1707 68.728 65.5973 68.984 65.896 69.496C66.2373 70.008 66.408 70.712 66.408 71.608C66.408 73.3147 66.0027 74.6373 65.192 75.576C63.3573 77.8373 61.352 79.6933 59.176 81.144C57 82.5947 54.504 83.32 51.688 83.32C42.984 83.32 38.632 77.1973 38.632 64.952C38.632 63.0747 38.696 61.176 38.824 59.256H36.328C35.048 59.256 34.1733 59.0213 33.704 58.552C33.2773 58.0827 33.064 57.336 33.064 56.312C33.064 53.9227 34.024 52.728 35.944 52.728H39.592C40.3173 48.0347 41.4267 43.7467 42.92 39.864C44.4133 35.9813 46.2053 32.888 48.296 30.584C50.4293 28.28 52.712 27.128 55.144 27.128C56.936 27.128 58.344 27.9173 59.368 29.496C60.392 31.0747 60.904 33.0587 60.904 35.448C60.904 42.0613 58.1307 47.8213 52.584 52.728H59.752C60.4347 52.728 60.9253 52.8773 61.224 53.176C61.5227 53.4747 61.672 54.0293 61.672 54.84C61.672 57.784 59.2613 59.256 54.44 59.256H46.632C46.5467 61.3893 46.504 63.0533 46.504 64.248C46.504 68.6853 47.016 71.8 48.04 73.592C49.1067 75.384 50.7707 76.28 53.032 76.28C54.8667 76.28 56.488 75.7253 57.896 74.616C59.304 73.5067 60.968 71.8427 62.888 69.624C63.4 69.0267 63.976 68.728 64.616 68.728ZM53.416 33.272C52.776 33.272 52.0507 34.0827 51.24 35.704C50.472 37.2827 49.7253 39.5013 49 42.36C48.3173 45.176 47.7413 48.312 47.272 51.768C49.7893 49.592 51.6667 47.16 52.904 44.472C54.184 41.7413 54.824 39.2667 54.824 37.048C54.824 34.5307 54.3547 33.272 53.416 33.272ZM84.493 68.728C84.9623 72.2267 85.645 75.6827 86.541 79.096C86.7117 79.6507 86.797 80.2267 86.797 80.824C86.797 82.744 85.6237 83.704 83.277 83.704C81.9543 83.704 80.9303 83.3413 80.205 82.616C79.5223 81.8907 78.8823 80.5253 78.285 78.52L78.221 78.264C76.5997 80.2693 75.1277 81.6133 73.805 82.296C72.525 82.9787 71.0317 83.32 69.325 83.32C66.7223 83.32 64.5677 82.36 62.861 80.44C61.197 78.4773 60.365 75.9387 60.365 72.824C60.365 69.4107 61.0903 66.2533 62.541 63.352C63.9917 60.4507 65.9757 58.0827 68.493 56.248C71.0103 54.3707 73.8263 53.24 76.941 52.856C77.7517 44.792 79.2877 37.7733 81.549 31.8C83.853 25.8267 86.9037 22.84 90.701 22.84C92.5357 22.84 94.0503 23.672 95.245 25.336C96.4823 27 97.101 29.5173 97.101 32.888C97.101 37.5813 95.949 43.064 93.645 49.336C91.341 55.608 88.2903 62.072 84.493 68.728ZM89.997 29.112C88.7597 29.112 87.5863 32.2693 86.477 38.584C85.4103 44.8987 84.685 51.768 84.301 59.192C89.037 48.952 91.405 40.632 91.405 34.232C91.405 32.6107 91.2557 31.352 90.957 30.456C90.701 29.56 90.381 29.112 89.997 29.112ZM71.565 76.856C72.4183 76.856 73.229 76.536 73.997 75.896C74.8077 75.256 75.8317 74.0187 77.069 72.184C76.6423 69.0693 76.429 65.848 76.429 62.52C76.429 61.1973 76.4503 60.1733 76.493 59.448C74.1463 60.1307 72.205 61.688 70.669 64.12C69.133 66.552 68.365 69.24 68.365 72.184C68.365 75.2987 69.4317 76.856 71.565 76.856Z" fill="black"/>
<path d="M40.064 68.728C40.6187 68.728 41.0453 68.984 41.344 69.496C41.6853 70.008 41.856 70.712 41.856 71.608C41.856 73.3147 41.4507 74.6373 40.64 75.576C38.72 77.9227 36.7787 79.8 34.816 81.208C32.8533 82.616 30.528 83.32 27.84 83.32C24.5547 83.32 21.9093 82.3813 19.904 80.504C17.8987 78.6267 16.896 76.1307 16.896 73.016C16.896 71.352 17.7493 70.1573 19.456 69.432C21.3333 68.6213 22.6773 67.768 23.488 66.872C24.2987 65.9333 24.704 64.8027 24.704 63.48C24.704 62.712 24.5333 62.136 24.192 61.752C23.8933 61.368 23.5093 61.176 23.04 61.176C21.888 61.176 20.608 62.008 19.2 63.672C17.8347 65.336 16.5547 67.4907 15.36 70.136C14.1653 72.7387 13.2267 75.4267 12.544 78.2C12.0747 80.2053 11.52 81.5707 10.88 82.296C10.2827 82.9787 9.32267 83.32 8 83.32C6.67733 83.32 5.696 82.8507 5.056 81.912C4.45867 80.9307 4.05333 79.4373 3.84 77.432C3.62667 75.4267 3.52 72.4827 3.52 68.6C3.52 62.0293 4.18133 55.1813 5.504 48.056C6.86933 40.9307 8.85333 34.9573 11.456 30.136C14.1013 25.272 17.2587 22.84 20.928 22.84C22.8907 22.84 24.4693 23.6933 25.664 25.4C26.9013 27.064 27.52 29.24 27.52 31.928C27.52 36.2373 26.2613 40.7173 23.744 45.368C21.2267 49.976 17.1307 55.3733 11.456 61.56C11.328 63.7787 11.264 66.0613 11.264 68.408C13.312 63.0747 15.6587 59.2133 18.304 56.824C20.9493 54.392 23.424 53.176 25.728 53.176C27.8613 53.176 29.568 53.9013 30.848 55.352C32.1707 56.8027 32.832 58.5947 32.832 60.728C32.832 63.0747 32.2347 65.2293 31.04 67.192C29.8453 69.1547 27.7973 70.904 24.896 72.44C25.0667 73.592 25.5787 74.5307 26.432 75.256C27.328 75.9387 28.3947 76.28 29.632 76.28C30.9547 76.28 32.2347 75.768 33.472 74.744C34.7093 73.72 36.3307 72.0133 38.336 69.624C38.848 69.0267 39.424 68.728 40.064 68.728ZM19.584 29.176C18.816 29.176 17.9627 30.2853 17.024 32.504C16.0853 34.68 15.168 37.6453 14.272 41.4C13.4187 45.112 12.7147 49.1653 12.16 53.56C14.8053 50.4453 16.9813 47.0533 18.688 43.384C20.4373 39.7147 21.312 36.3867 21.312 33.4C21.312 32.0347 21.1627 30.9893 20.864 30.264C20.5653 29.5387 20.1387 29.176 19.584 29.176Z" fill="black"/>
</svg>
