<svg width="16" height="14" viewBox="0 0 16 14" fill="none" xmlns="http://www.w3.org/2000/svg">
<rect x="16" y="6" width="2" height="16" transform="rotate(90 16 6)" fill="black"/>
<rect x="4" y="8" width="2" height="2" transform="rotate(90 4 8)" fill="black"/>
<rect x="6" y="10" width="2" height="2" transform="rotate(90 6 10)" fill="black"/>
<rect x="8" y="12" width="2" height="2" transform="rotate(90 8 12)" fill="black"/>
<rect width="2" height="2" transform="matrix(4.37114e-08 -1 -1 -4.37114e-08 4 6)" fill="black"/>
<rect width="2" height="2" transform="matrix(4.37114e-08 -1 -1 -4.37114e-08 6 4)" fill="black"/>
<rect width="2" height="2" transform="matrix(4.37114e-08 -1 -1 -4.37114e-08 8 2)" fill="black"/>
</svg>
