<svg width="16" height="14" viewBox="0 0 16 14" fill="none" xmlns="http://www.w3.org/2000/svg">
<rect width="2" height="16" transform="matrix(4.37114e-08 1 1 -4.37114e-08 0 6)" fill="black"/>
<rect width="2" height="2" transform="matrix(4.37114e-08 1 1 -4.37114e-08 12 8)" fill="black"/>
<rect width="2" height="2" transform="matrix(4.37114e-08 1 1 -4.37114e-08 10 10)" fill="black"/>
<rect width="2" height="2" transform="matrix(4.37114e-08 1 1 -4.37114e-08 8 12)" fill="black"/>
<rect x="12" y="6" width="2" height="2" transform="rotate(-90 12 6)" fill="black"/>
<rect x="10" y="4" width="2" height="2" transform="rotate(-90 10 4)" fill="black"/>
<rect x="8" y="2" width="2" height="2" transform="rotate(-90 8 2)" fill="black"/>
</svg>
